<svg width="450.000000" height="250.000000" viewBox="0 0 450 250" fill="none" xmlns="http://www.w3.org/2000/svg" xmlns:xlink="http://www.w3.org/1999/xlink">
	<desc>
			Created with Pixso.
	</desc>
	<defs>
		<clipPath id="clip15_1">
			<rect id="manhero" width="450.000000" height="250.000000" fill="white" fill-opacity="0"/>
		</clipPath>
	</defs>
	<g clip-path="url(#clip15_1)">
		<path id="path" d="M65.57 77.39C65.57 77.39 92.27 154.39 137.36 161.5C181.95 163.98 191.39 217.43 213.45 212.23C231.76 207.92 237.6 195.86 254.58 197.33C267.02 198.41 303.47 234.89 315.88 205.04C331.79 166.79 352.18 191.33 370.84 177.06C396.75 157.24 447.74 45.28 338.65 0C339.24 37.53 307.49 64.03 263.53 51.27C218.8 38.28 177.4 27.96 131.52 65.2C115.41 78.27 65.57 77.39 65.57 77.39Z" fill="#ED1C24" fill-opacity="1.000000" fill-rule="nonzero"/>
		<path id="path" d="" fill="#231F20" fill-opacity="1.000000" fill-rule="nonzero"/>
		<path id="path" d="M362.04 115.18L330.14 139.64L307.3 139L297.13 133.18L314.46 158.03L327.14 164.71L336.54 159.6L341.51 156.26L367.06 155.63L382.63 139L386.38 95.37L362.04 115.18ZM329.28 153.37L318.24 154.06L307.9 144.4L318.42 148.66L330.14 148.23L329.28 153.37ZM366.68 136.21L358.7 145.43L344.94 149.3L339.96 145.22L351.92 138.72L361.57 130.71L368.23 121.89L366.68 136.21Z" fill="#FFFFFF" fill-opacity="1.000000" fill-rule="nonzero"/>
		<path id="path" d="M330.14 139.64L307.3 139L297.13 133.18L314.46 158.03L327.14 164.71L336.54 159.6L341.51 156.26L367.06 155.63L382.63 139L386.38 95.37L362.04 115.18L330.14 139.64ZM318.24 154.06L307.9 144.4L318.42 148.66L330.14 148.23L329.28 153.37L318.24 154.06ZM358.7 145.43L344.94 149.3L339.96 145.22L351.92 138.72L361.57 130.71L368.23 121.89L366.68 136.21L358.7 145.43Z" stroke="#FFFFFF" stroke-opacity="1.000000" stroke-width="0.647000"/>
		<rect id="rect" x="212.577698" y="169.192688" width="3.179467" height="32.981197" transform="rotate(10.4109 212.577698 169.192688)" fill="#FFFFFF" fill-opacity="1.000000"/>
		<rect id="rect" x="201.342041" y="166.155823" width="3.180438" height="18.761028" transform="rotate(36.3989 201.342041 166.155823)" fill="#FFFFFF" fill-opacity="1.000000"/>
		<rect id="rect" x="188.628906" y="158.030640" width="3.179588" height="17.023972" transform="rotate(72.326 188.628906 158.030640)" fill="#FFFFFF" fill-opacity="1.000000"/>
		<rect id="rect" x="226.079224" y="174.650208" width="3.178730" height="20.668219" fill="#FFFFFF" fill-opacity="1.000000"/>
		<rect id="rect" x="244.132202" y="181.378235" width="15.337355" height="3.179590" transform="rotate(58.7817 244.132202 181.378235)" fill="#FFFFFF" fill-opacity="1.000000"/>
		<path id="polygon" d="M354.41 9.8L355.64 20.25L365.95 22.32L356.39 26.71L357.62 37.16L350.49 29.43L340.93 33.82L346.08 24.65L338.94 16.91L349.26 18.98L354.41 9.8Z" fill="#FFFFFF" fill-opacity="1.000000" fill-rule="nonzero"/>
		<path id="polygon" d="M329.99 37.9L336.52 41.69L342.15 36.66L340.55 44.04L347.08 47.84L339.57 48.61L337.97 55.99L334.92 49.08L327.41 49.84L333.04 44.81L329.99 37.9Z" fill="#FFFFFF" fill-opacity="1.000000" fill-rule="nonzero"/>
		<path id="path" d="M128.57 121.76L148.5 108.13L152.29 98.84L147.53 94.3L139.95 79.93L134.95 79.93L129.68 72.88L125.75 72.88L108.36 69.27L107.84 59.41L109.58 57.77L110.9 55.04L109.79 50.8L112.2 35.18L107.84 36.88L109.58 33.56L105.22 35.67L103.74 33.56L101.15 34.1L97.85 33.76L95.88 35.56L93.08 33.86L90.41 35.68L88.42 35.06L86.65 41.4L86.65 52.52L86.37 57.2L88.77 59.7L88.11 69.26L71.48 72.28L67.11 71.93L61.37 80.09L52.4 81.93L48.91 94.3L44 100.03L46.74 106.42L67.87 121.76L74.19 128.39L79.34 128.79L70.24 144.62L68.34 179.97L63.21 185.42L64.4 190.33L59.97 198.93L60.46 220.27L59.01 231.95L51.58 241.34L52.94 250L63.37 246.31L68.27 234.55L70.24 233.24L68.15 224.54L79.63 205.68L79.63 189.33L92.71 167.76L98.22 148.61L104.84 170.29L116.98 189.47L116.17 207.57L129.95 225.14L127.36 232.7L128.17 234.55L132.9 246.1L142.38 248.82L145.22 244.36L139.61 235.16L136.76 229.45L136.43 196.77L131.61 189.28L130.23 183.14L127.36 178.66L126.17 145.43L117.1 128.79L122.9 128.1L128.57 121.76ZM77.34 111.83L73.19 111.63L70.06 104.26L64.03 96.69L68.15 96.79L71.39 92.01L76.84 104.27L81.24 113.14L77.34 111.83ZM115.1 113.14L119.5 104.27L124.95 92.01L128.19 96.79L132.31 96.69L126.28 104.26L123.15 111.63L119 111.83L115.1 113.14Z" fill="#231F20" fill-opacity="1.000000" fill-rule="nonzero"/>
		<path id="path" d="M73.93 70.87C74.1 70.82 74.29 70.77 74.51 70.71C77.51 69.96 84.73 68.79 86.23 68.38C88.57 71.31 94.18 76.8 96.81 77.39C92.86 77.39 71.44 72.77 69.97 71.82C73.93 70.87 73.93 70.87 73.93 70.87Z" fill="#ED1C24" fill-opacity="1.000000" fill-rule="nonzero"/>
		<path id="path" d="M108.93 68.38C108.93 68.38 101.95 76.07 99.6 77.39C106.2 77.83 127.09 72.48 127.09 72.48C127.09 72.48 112.3 68.38 108.93 68.38Z" fill="#ED1C24" fill-opacity="1.000000" fill-rule="nonzero"/>
		<path id="Taskify" d="M278.92 67.47Q278.96 67.81 278.92 68.19L279.43 69.17L279.7 69.36Q279.98 69.4 280.37 69.51Q280.77 69.6 281.3 69.69Q281.82 69.77 282.2 69.83Q282.58 69.88 282.88 69.92L284.21 69.55L284.32 69.38Q284.6 69.06 284.79 68.89Q284.87 68.82 284.89 68.77Q284.91 68.72 284.95 68.67L285.62 66.92L284.8 64.68L284.26 63.97Q284.02 63.97 283.98 64.02Q283.94 64.08 283.54 64.15Q283.23 64.2 282.42 64.16Q281.94 64.11 281.66 64.11Q281.39 64.12 281.34 64.12Q281.26 64.18 281.14 64.34Q280.94 64.51 280.95 64.56Q280.71 64.79 279.76 65.01Q279.46 65.11 279.23 65.15Q279.01 65.19 278.87 65.25L278.74 65.79Q278.77 65.97 278.79 66.2Q278.81 66.43 278.86 66.75Q278.88 67.12 278.92 67.47ZM260.6 90.25Q260.96 89.9 261.5 89.71Q261.52 89.71 261.53 89.7Q261.58 89.66 261.56 89.52Q261.52 89.33 261.44 89.14Q261.36 88.94 261.29 88.74Q261.24 88.55 261.31 88.44Q261.32 88.44 261.32 88.43Q261.47 88.27 261.62 88.08Q261.78 87.88 261.98 87.71Q263.14 86.57 264.38 85.57Q265.63 84.55 266.6 83.44Q266.87 83.35 267.08 83.01Q267.3 82.67 267.48 82.24Q267.67 81.8 267.86 81.35Q268.06 80.89 268.29 80.58L268.73 80.17L267.67 78.67L266.52 78.73Q266.21 79.12 265.88 79.51Q265.55 79.89 265.16 80.33Q264.55 81.09 264.09 81.52Q263.63 81.96 263.42 82.13Q263.23 82.07 263.16 82.04Q263.08 82.01 262.94 82.03Q262.94 82.03 262.93 82.03Q262.75 82.03 262.56 82.66Q262.38 83.3 261.62 84.08Q261.29 84.33 261.05 84.57Q260.81 84.79 260.27 85.16Q260.31 85.3 260.3 85.45Q260.28 85.92 259.78 86.37Q259.09 86.97 259.04 86.93Q259.03 86.92 259.03 86.92Q258.61 87.7 258.52 88.09Q258.43 88.47 258.28 88.74Q258.28 88.75 258.27 88.76Q258.13 89 257.84 89.15Q257.55 89.29 256.75 89.57Q256.42 89.41 256.24 89.15Q256.14 89.01 256.09 88.84Q255.93 88.35 256.34 86.97L257.04 86.15L256.72 82.8Q256.65 82.67 256.61 82.4Q256.57 82.18 256.49 81.86Q256.41 81.54 256.34 81.13Q256.15 80.33 256.02 79.87Q255.89 79.4 255.81 79.17Q255.73 78.96 255.7 78.54Q255.67 78.13 255.67 77.73Q255.67 77.33 255.69 77.05Q255.7 76.76 255.75 76.76Q255.77 76.77 255.78 76.76Q255.82 76.75 255.83 76.65Q255.85 76.51 255.87 76.32Q255.88 76.13 255.87 75.95Q255.86 75.76 255.85 75.71Q255.84 75.67 255.84 75.39Q255.83 75.11 255.79 74.74Q255.75 74.37 255.72 73.97Q255.7 73.55 255.64 73.23Q255.47 72.55 255.3 72.09Q255.13 71.63 255 71.43L254.85 70.56L253.86 70.22Q253.56 70.14 253.21 70.18Q252.87 70.22 252.45 70.2Q251.93 70.19 251.54 70.23Q251.15 70.28 250.78 70.25L250.2 70.45L249.45 71.51Q249.86 72.31 249.64 72.57Q249.62 72.59 249.6 72.61L249.81 76.45Q250.6 76.85 250.78 77.44Q250.79 77.47 250.79 77.49Q250.94 78.07 250.83 78.59Q250.82 78.63 250.81 78.68Q250.68 79.24 250.42 79.63Q250.2 79.98 250.16 79.96Q250.15 79.96 250.15 79.94Q250.21 80.3 250.35 80.94Q250.48 81.56 250.7 82.55Q250.96 83.48 251.12 84.12Q251.27 84.74 251.36 84.95L251.5 88.95L252.21 94.8L252.61 97.92L252.37 100.75L252.39 100.84Q252.57 101.89 252.91 102.09Q252.95 102.12 253.01 102.14Q253.32 102.26 253.73 102.11L256.72 101.58L258.16 100.95L258.79 99.57L258.64 98.71L258.53 97.01L257.78 93.82Q257.44 93.19 257.52 92.77Q257.6 92.45 257.79 92.25Q257.85 92.19 257.93 92.14Q258.13 91.99 258.36 91.93Q258.48 91.89 258.61 91.87Q258.98 91.83 259.22 91.94Q259.39 91.86 259.57 91.57Q259.76 91.27 260 90.93Q260.25 90.58 260.6 90.25ZM312.14 73.16L313.28 72.96L314.51 72L314.96 70.52L314.43 69.68Q314.2 69.72 313.95 69.79Q313.71 69.85 313.36 69.92Q311.37 70.36 310.69 70.2L307.02 70.85Q306.74 69.5 306.86 68.78Q307 68.05 306.9 67.51Q306.79 67.44 306.63 66.76Q306.56 66.63 306.49 66.22L306.46 66.05Q306.71 65.34 307.08 64.76Q307.44 64.19 307.92 63.83Q308.16 63.64 308.43 63.53Q308.69 63.42 308.98 63.38Q309.57 63.3 310.23 63.6L311.45 64.65L312 64.6L312.9 63.4L312.82 62.68L310.15 61.28L305.05 62.04L302.52 64.12L301.92 64.93Q301.62 65.35 301.48 65.66Q301.35 65.97 301.28 66.12L300.87 67.44Q300.95 67.94 301.01 68.4Q301.07 68.86 300.99 69.25Q301 69.29 301.37 69.51Q301.74 69.72 301.89 69.8Q302.17 69.9 302.3 70.11Q302.37 70.2 302.4 70.31Q302.51 70.67 302.51 70.71L302.53 70.8Q302.54 70.84 302.53 70.91Q302.52 70.98 302.53 71.07Q302.53 71.31 302.48 71.61Q302.44 71.89 302.31 72.06Q302.27 72.1 302.22 72.14Q302.11 72.22 301.94 72.24Q301.72 72.25 301.33 71.95L300.07 72.26L296.9 73.29Q296.49 73.87 296.38 74.47Q296.32 74.81 296.45 75.06Q296.55 75.24 296.76 75.36L298.49 76.23Q299.63 75.28 300.22 75.13Q300.26 75.12 300.3 75.1Q300.52 75.05 300.76 75.08L301.75 75.09Q301.8 76.48 301.78 77Q301.75 77.52 301.7 77.99Q301.68 78.03 301.67 78.06Q301.62 78.25 301.78 78.5Q301.83 78.58 301.84 78.66Q301.87 78.88 301.57 79.14L302.08 83.07Q302.2 83.23 302.28 83.55Q302.36 83.86 302.38 84Q302.45 84.36 302.51 85.08Q302.56 85.79 302.68 87.31Q302.76 88.03 302.75 88.37Q302.75 88.7 302.75 88.84Q302.75 88.97 302.74 89.05Q302.73 89.12 302.8 89.29Q302.59 90.73 302.58 92.05Q302.54 93.08 302.64 93.91Q302.72 94.57 302.98 94.65Q303.03 94.67 303.1 94.66Q303.45 94.6 304.32 94.35Q305.19 94.11 306.12 93.8Q306.69 93.6 307.26 93.43Q307.85 93.26 308.46 93.06L308.76 90.2L308.54 89.73L308.75 87.49Q308.64 86.86 308.62 86.66Q308.61 86.45 308.64 86.35Q308.67 86.25 308.69 86.13Q308.71 86 308.68 85.54Q308.59 84.44 308.54 84.03Q308.49 83.62 308.41 83.45Q308.23 83.01 308.13 82.82Q308.03 82.63 307.99 82.54Q307.95 82.46 307.92 82.39Q307.88 82.33 307.86 82.19Q307.83 82.05 307.85 81.73Q307.85 81.4 307.86 81.02Q307.86 80.65 307.82 80.29Q307.79 79.92 307.65 79.7Q307.67 79.62 307.68 79.54Q307.75 79.08 307.51 78.56Q307.25 77.95 307.3 77.76Q307.32 77.62 307.45 77.31Q307.59 77 307.72 76.7Q307.86 76.39 307.96 76.15Q308.06 75.89 308.04 75.76L307.52 73.93L308.92 73.69Q309.74 73.54 310.58 73.42Q311.42 73.29 312.14 73.16ZM190.5 88.28Q191.1 88.2 191.55 88.12L192.3 87.29L192.03 85.8L191.68 85.4Q190.72 85.52 187.64 85.55Q185.87 85.58 185.02 85.66Q184.16 85.74 183.83 85.89Q183.76 86.09 183.69 86.19Q183.53 86.42 183.33 86.49Q183.24 86.52 183.14 86.53Q182.86 86.57 182.57 86.51Q182.28 86.44 182.04 86.34L181.52 86.06L177.43 86.97Q176.01 87.41 175.02 87.75Q174.03 88.09 173.31 88.41Q172.6 88.71 172.09 89.02Q171.58 89.32 171.12 89.63Q171.03 89.64 170.94 89.61Q170.84 89.58 170.62 89.6Q170.42 89.61 170.03 89.68Q169.65 89.75 169.03 89.95L168.72 91.36Q168.88 91.98 169.09 92.39Q169.3 92.8 169.56 93.22L170.47 93.66L172.97 92.66Q172.87 92.12 173.05 92.01Q173.06 92 173.08 91.99Q173.3 91.9 173.55 91.76Q173.96 91.46 174.67 91.25Q175.38 91.02 176.41 90.7Q176.77 90.68 177.22 90.71Q177.46 90.71 177.66 90.61Q177.81 90.53 177.94 90.39L178.14 90.49Q178.18 91.28 178.23 92.04Q178.27 92.8 178.29 93.45Q178.29 94.25 178.26 94.86Q178.24 94.86 178.23 94.87Q178.02 95 178.69 96.56Q179.24 97.61 178.96 97.93Q178.84 98.07 178.58 98.07L178.93 100.02Q178.89 100.82 178.92 101.03Q178.96 101.23 178.8 101.63L178.77 101.69Q178.72 101.74 178.7 101.79Q178.69 101.84 178.65 101.89L178.78 102.6Q178.84 102.93 178.86 103.3Q178.92 103.9 179.02 104.59Q179.11 105.27 179.11 105.78Q179.19 105.76 179.26 105.78Q179.82 105.88 180.08 107.57Q180.32 109.49 180.51 110.01Q180.67 110.41 180.68 110.6Q180.69 110.78 180.77 111.23Q180.86 111.78 180.87 112.08Q180.88 112.38 180.86 112.51Q180.83 112.63 180.79 112.66Q180.77 112.67 180.76 112.7Q180.76 112.71 180.76 112.73L182.44 113.51Q182.52 113.49 182.63 113.45Q182.74 113.41 182.84 113.39L182.97 113.37L188.24 111.17L188.4 110.78L187.48 108.47Q187.32 108.12 187.17 107.52Q187.02 106.9 186.8 106.01Q186.5 104.52 186.11 101.82Q185.73 99.1 185.31 94.55Q185.31 93.01 185.85 92.4L185.25 88.96Q185.63 88.98 186.71 88.81Q187.81 88.64 189.14 88.46Q189.91 88.37 190.5 88.28ZM214 107L220.22 105.12L220.66 103.96L219.8 102.48L218.39 102.73L217.75 102.56L215.82 97.44L215.56 95.14L213.69 88.05L211.58 85.81L207.43 85.32L205.44 86L203.47 85.7L201.46 86.42L200.84 86.68L200.66 87.45L200.37 88.72L200.95 89.36L202.87 88.6L204.76 87.95Q205.3 88.08 206.1 88.29Q206.91 88.5 207.3 88.57L208.44 90.75Q209.05 91.9 209.25 93.02Q209.44 94.12 209.13 94.98Q207.77 94.93 207.28 94.79Q207.17 94.76 207.09 94.7Q206.76 94.49 206.66 93.92Q205.93 93.81 204.88 93.93Q203.83 94.04 202.71 94.35Q201.6 94.66 200.51 95.14Q199.43 95.62 198.65 96.21L197.35 97.89L196.01 101.4L197.71 105.21L197.66 106.2L199.29 108.86L200.62 109.23L203.55 108.89Q203.81 109.09 203.97 109.15Q204.28 109.38 205.07 109.33Q205.35 109.46 205.63 109.52Q206.57 109.73 207.66 109.3Q209.07 108.72 210.29 107.43Q210.4 107.17 210.5 106.97Q210.6 106.77 210.71 106.56Q210.87 106.2 211.04 105.85Q211.22 105.49 211.41 105.32Q211.96 104.77 212.18 104.88Q212.28 104.93 212.31 105.11L214 107ZM224.13 85.6L222.73 89.08L223.06 90.92L224.46 92.79L226.41 95.61L227.77 96.22L229.82 96.75L230.36 96.32L234.02 96.66L236.07 96.67L236.71 97.91L234.5 101.29L232.38 101.94L225.93 103.78L225.8 105.16L226.58 106.43L231.57 105.55Q232.33 105.41 233.21 105.08Q234.08 104.73 235.3 104.7L237.58 104.63L240.98 102.53L243 101L242.94 99.05L243.46 96.16L242.8 94.03Q242.7 93.96 242.67 93.92Q242.64 93.88 242.53 93.8Q242.25 93.57 241.73 93.39Q241.21 93.2 240.68 93.02Q240.16 92.82 239.72 92.62Q239.29 92.41 239.11 92.17Q238.65 92.25 238.45 92.19Q238.26 92.12 238.1 92.03Q237.95 91.95 237.74 91.83Q237.53 91.69 237.05 91.64Q236.67 91.61 236.39 91.64Q236.12 91.67 235.89 91.66Q235.56 91.62 235.16 91.77Q235.15 91.77 235.14 91.77Q234.75 91.91 234.39 92.11L233.61 91.45L232.54 91.74L231.73 90.53L230.42 90.56L228.93 88.21L229.26 86.89L232.34 85.27L235.03 83.31L237.28 82.86L237.94 82.14L237.5 80.68L237.12 80.37L235.45 80.67L229.14 82.76Q229.4 83.01 229.39 83.26Q229.38 83.98 227.13 84.65Q226.38 84.88 225.8 85.08Q225.23 85.27 224.88 85.38Q224.66 85.46 224.48 85.52Q224.31 85.57 224.13 85.6ZM286.03 76.65L285.91 74.98L284.15 74.22L280.35 76.53L280.57 79.06L280.51 80.34L280.53 80.74L280.36 81.34L280.5 82.95L280.44 85.01L280.33 85.92Q280.7 87.26 280.96 88.86Q281.22 90.44 281.37 91.86Q281.53 93.27 281.59 94.32Q281.66 95.36 281.66 95.59L283.05 96.84Q283.34 96.69 283.6 96.6L284.14 96.42Q284.62 96.24 285.18 96.1Q285.73 95.95 286.32 95.79Q287.35 95.56 287.66 95.12Q287.98 94.67 288.26 94.1Q288.28 92.88 288.21 91.96Q288.14 91.04 288.06 90.35Q287.78 90.03 287.64 89.51Q287.57 89.26 287.53 89Q287.48 88.74 287.46 88.48Q287.41 87.95 287.42 87.46Q287.42 86.97 287.37 86.64L286.78 82.31L286.61 80.24L286.43 79.99L286.5 79.09L286.18 78.07L286.32 77.3L286.03 76.65ZM344.99 65.41L341.39 65.35L340.39 66.6Q340.36 66.69 340.37 66.72Q340.37 66.74 340.34 66.83Q340.32 66.99 340.14 67.18Q339.97 67.37 339.75 67.62Q339.61 67.78 339.49 67.96Q339.43 68.04 339.37 68.13Q339.21 68.39 339.21 68.63Q339.08 70.01 338.97 70.75Q338.87 71.48 338.64 72.28Q338.65 72.32 338.41 72.58Q338.17 72.83 337.88 73.16Q337.59 73.49 337.35 73.84Q337.11 74.18 337.06 74.43Q336.78 74.99 336.61 75.33Q336.43 75.65 336.01 76.15Q335.98 76.24 335.99 76.32Q336.01 76.42 336.07 76.52Q336.19 76.68 336.37 76.89L336.76 77.24Q336.84 77.3 336.9 77.37Q336.99 77.49 337.01 77.65Q337.02 77.68 337.02 77.71Q337.04 77.96 336.88 78.22Q336.7 78.5 336.41 78.73Q336.12 78.94 335.87 79.1Q335.62 79.25 335.53 79.27Q335.37 79.21 335.05 78.41Q334.72 77.6 334.06 76.73Q333.76 76.37 333.35 75.95Q332.96 75.53 332.56 75.13Q332.16 74.73 331.89 74.4Q331.63 74.07 331.61 73.94Q330.77 73.71 330.45 73.54Q330.26 73.42 330.27 73.36Q330.28 73.33 330.37 73.31Q330.41 73.31 330.44 73.28Q330.51 73.22 330.5 73.09Q330.48 72.87 330.41 72.61Q330.34 72.34 330.22 72.11Q330.11 71.87 330.1 71.82Q329.87 71.53 329.38 71.3Q328.9 71.05 328.37 70.75Q327.85 70.44 327.41 70.05Q327.21 69.87 327.08 69.65Q326.93 69.39 326.87 69.07Q325.81 68.94 324.71 68.25Q323.93 67.77 323.03 67.46L320.59 68.73Q320.57 68.78 320.54 68.83Q320.25 69.36 319.44 69.6Q318.98 69.73 318.65 70Q318.39 70.21 318.19 70.51L318.73 71.68Q320.11 72.32 322.17 74.49Q322.85 75.2 323.65 76.04Q323.78 76.17 323.9 76.3Q324.58 77.01 325.24 77.74Q326.02 78.61 326.71 79.48Q327.41 80.34 327.81 81.05Q328.01 81.11 328.33 81.38Q328.67 81.65 329.16 82.04Q330.08 82.81 330.32 82.81Q330.74 83.16 330.81 84.58Q330.81 85.25 330.51 85.75Q330.48 85.81 330.44 85.87Q330.33 86.03 330.01 86.37Q330.26 86.32 330.4 86.43Q330.78 86.72 330.28 88.14Q330.08 88.65 329.82 89.02Q329.56 89.39 329.32 89.66Q329.17 89.83 329.03 89.97Q328.89 90.11 328.73 90.23L328.93 91.37L328.22 92.1L327.33 93.42L325.85 94.1L327.08 96.27L332.48 95.6L332.99 94.53L335.11 90.42L336.67 86.82L336.16 86.31Q336.26 86.29 336.36 86.21Q336.46 86.12 336.58 86.05L337.7 84.45L342.5 73.23Q342.58 72.85 342.91 72.39Q343.25 71.93 343.62 71.49Q343.98 71.05 344.27 70.73Q344.56 70.39 344.59 70.25Q344.73 67.84 344.61 67.44L344.59 67.31L344.99 65.41ZM202.65 102.65Q202.27 101.88 202.28 100.67L202.56 98.75Q202.78 98.44 203.36 98.17Q203.95 97.9 204.67 97.66Q205.4 97.4 206.1 97.19Q206.82 96.97 207.34 96.74Q207.77 96.57 208.25 96.49Q208.72 96.41 209.41 96.51L210.92 100.41L211.24 102.72Q210.21 103.71 209.39 104.25Q208.57 104.79 207.8 105.04Q207.02 105.29 206.27 105.29Q205.52 105.28 204.67 105.15L203.73 103.87Q203.57 103.76 203.42 103.64Q202.96 103.24 202.65 102.65ZM270.94 99.86L273.84 97.72L273.78 96.89L272.36 95.41Q272.35 95.42 272.34 95.41Q272.32 95.4 272.36 95.32Q272.39 95.27 272.38 95.23Q272.36 95.18 272.31 95.14Q272.26 95.1 272.03 94.91Q271.81 94.71 271.33 94.38Q270.85 94.04 270.52 93.8Q270.2 93.55 270.05 93.44Q269.74 93.07 269.64 92.76Q269.57 92.52 269.46 92.29Q269.43 92.22 269.4 92.15Q269.25 91.85 268.96 91.53Q268.67 91.21 268.05 90.85Q267.58 90.32 267.32 90.04Q267.06 89.76 266.95 89.64Q266.94 89.6 266.96 89.59Q266.96 89.59 266.96 89.59Q266.97 89.59 266.97 89.59Q266.98 89.58 266.98 89.54L266.23 89.01L265.77 89.1Q265.55 89.13 265.24 89.24Q264.3 89.49 263.5 89.59Q262.7 89.68 262.06 89.7Q262.05 89.71 262.05 89.72Q261.79 90.28 262.78 91.4Q263.38 91.9 263.92 92.2Q264.37 92.45 264.33 92.58Q264.33 92.61 264.29 92.63L264.91 95Q265.29 95.11 265.46 95.32Q265.65 95.51 265.71 95.61Q265.95 95.93 266.53 96.42Q267.1 96.9 267.75 97.62Q268.03 97.9 268.21 98.13Q268.39 98.35 268.61 98.55L269.95 99.81L270.94 99.86Z" fill="#FFFFFF" fill-opacity="1.000000" fill-rule="evenodd"/>
		<path id="Pro" d="M212.17 129.48Q211.73 129.67 211.36 129.83L210.95 131.42Q211.05 131.98 211.15 132.26Q211.26 132.54 211.24 133.08Q211.25 133.36 211.63 134.71Q212.02 136.06 212.68 138.48Q213.41 140.93 213.35 142.38Q213.29 143.82 213.36 144.2Q213.43 144.58 213.34 144.82Q213.27 145.02 213.32 145.18Q213.33 145.21 213.34 145.23Q213.7 146.14 213.86 147.04Q214.02 147.94 214.33 149.44Q214.39 149.79 214.27 150.05Q214.26 150.08 214.25 150.1Q214.1 150.36 214.08 150.51Q214.1 150.9 214.33 151.51Q214.56 152.13 214.58 152.28Q214.65 152.65 214.63 153.34Q214.6 154.02 214.89 155.09Q215.16 156.11 215.03 156.76Q214.9 157.39 214.79 157.6Q215 158.24 215.15 159.19Q215.29 160.14 215.52 160.88L216.73 161.16Q217.08 160.89 217.34 160.61Q217.61 160.31 217.71 160.29Q217.8 160.28 218.08 160.26Q218.38 160.24 218.71 160.22Q219.05 160.21 219.31 160.19Q219.58 160.17 219.68 160.15Q220.25 160.05 221.23 159.53Q221.31 159.47 221.38 159.46Q221.45 159.44 221.55 159.38L222.01 157.88Q221.75 157.2 221.49 156.5Q221.24 155.78 221 155.19Q220.94 154.86 221.27 154.24Q221.3 154.18 221.33 154.11Q221.58 153.53 221.41 152.78Q221.21 151.98 221.09 151.46Q220.98 150.95 220.93 150.67Q220.88 150.43 221.03 149.75Q221.18 149.07 221.25 148.61Q221.13 148.43 220.93 147.93Q221.74 147.79 221.93 147.54Q222.14 147.28 222.52 146.97Q222.91 146.66 223.53 146.33Q224.15 146.01 225.05 145.85L227.94 145.34L229.83 144.17Q230.78 143.52 231.78 143.27Q232.79 143.02 233.04 143.03Q232.95 142.53 233.12 142.14Q233.3 141.72 233.78 141.43Q234.69 140.78 234.68 140.74Q234.54 139.93 234.16 138.69Q233.8 137.43 233.66 135.75Q233.61 134.93 233.41 134.52Q233.22 134.12 233.02 133.94Q232.82 133.75 232.66 133.73Q232.51 133.71 232.5 133.66L232.39 131.35Q232.07 131.45 230.89 130.59Q230.28 130.15 229.79 129.86Q229.29 129.55 228.87 129.37L224.21 127.23L220.33 127.92Q220.24 127.93 220.05 128.41Q219.93 128.7 219.76 128.95Q219.66 129.09 219.54 129.22Q219.39 129.38 219.21 129.45Q218.99 129.54 218.71 129.51Q218.21 129.46 217.49 128.42Q217.47 128.28 217.41 128.16Q217.36 128.07 217.3 127.99Q217.14 127.79 217.06 127.61Q216.39 127.73 216.04 127.82Q215.7 127.9 215.2 128.08Q214.73 128.21 214.38 128.45Q214.03 128.68 213.11 129.03Q212.62 129.28 212.17 129.48ZM227.61 141.01Q226.83 142.12 226.87 142.35L225.7 142.56Q225.59 142.58 225.12 142.91Q224.64 143.23 223.78 143.92Q222.32 145.03 222.08 144.81Q222.04 144.78 222.03 144.72L220.28 145.56Q220.15 145.1 220.03 144.88Q219.91 144.65 219.91 144.6Q219.9 143.97 219.83 143.68Q219.75 143.37 219.63 142.7Q219.58 142.42 219.69 142.26Q220.01 141.28 219.31 139.79Q218.8 138.61 219.18 137.92Q219.3 137.72 219.5 137.56Q219.47 137.13 218.87 134.02Q218.35 131.04 218.39 130.73L218.74 130.48L219.71 130.5L221.52 130.18L226.38 134.01L227.02 135.41L228.39 139.6Q228.45 139.93 227.61 141.01ZM286.16 133.2Q286.05 132.61 285.76 131.83Q285.71 131.71 285.63 131.64Q285.55 131.59 285.44 131.57Q285.22 131.53 284.96 131.46Q284.94 131.45 284.92 131.44Q284.69 131.36 284.52 131.13Q284.33 130.86 284.29 130.13Q284.09 130.07 283.61 129.94Q283.12 129.8 282.56 129.67Q282 129.51 281.49 129.44Q280.99 129.35 280.79 129.38Q280 129.52 279.25 130.02Q278.52 130.52 277.76 130.65L277.75 130.61Q277.7 130.57 277.06 130.53Q276.65 130.53 276.6 130.4Q276.57 130.34 276.62 130.25Q276.75 129.95 276.68 129.52L275.47 128.23Q275.43 128.23 275.18 128.25Q274.95 128.27 274.65 128.23Q274.45 128.22 274.26 128.2Q274.06 128.19 273.81 128.19L272.41 128.53Q271.22 128.93 269.93 129.92Q268.64 130.89 266.9 132.38Q266.7 132.6 266.51 132.94Q266.33 133.25 265.99 133.56Q266.01 134.24 265.96 135.1Q265.92 135.95 265.74 137.11Q265.69 137.66 265.51 138.48Q265.35 139.28 265.16 140.04Q264.97 140.8 264.78 141.4Q264.6 141.99 264.48 142.16Q264.55 142.82 264.69 143.34Q264.83 143.85 265.03 144.43Q265.22 145 265.43 145.77Q265.65 146.53 265.85 147.66L268.34 150.2L272.91 151Q273.43 150.91 273.79 150.7Q274.19 150.49 276.41 150.1Q276.51 150.08 277.35 149.67Q278.2 149.25 279.02 148.9Q279.91 148.65 280.48 148.31Q281.06 147.96 281.83 147.68Q282.15 147.28 282.75 146.84Q283.36 146.38 283.98 146.02Q284.59 145.63 285.05 145.36Q285.51 145.08 285.6 144.97Q285.8 144.49 285.76 143.7Q285.71 142.9 286.37 141.61Q286.68 140.92 286.76 140.55Q286.85 140.17 286.76 139.93Q286.61 139.67 286.45 139.61Q286.48 139.49 286.48 139.21Q286.47 138.91 286.49 138.37Q286.52 137.78 286.77 137.18Q287.04 136.57 287.09 136.36Q286.72 135.85 286.56 135.36Q286.4 134.88 286.33 134.33Q286.26 133.78 286.16 133.2ZM258.8 134.19L258.42 132.02L257.68 131.36L252 133.44Q252.02 134.12 252.17 134.54Q252.28 134.87 252.16 135.02Q252.14 135.06 252.1 135.08L251.33 135.71Q251.3 135.73 251.27 135.75Q251.06 135.89 250.76 135.88Q250.73 135.88 250.7 135.88Q250.4 135.85 250.11 135.64Q249.81 135.39 249.58 134.87Q249.37 134.34 249.38 133.52L248.09 133.16L243.38 134.91L242.49 135.06L242.12 136.64Q242.47 136.92 242.8 137.28Q243.13 137.64 243.23 137.91Q243.58 138.82 243.65 139.11Q243.74 139.38 243.8 139.71Q243.88 139.89 243.91 140.57Q243.96 141.24 243.76 141.47Q243.78 141.57 243.78 141.71Q243.78 141.86 243.8 141.95Q243.77 142.06 243.8 142.2L243.94 145.78L244.22 150.66L244.86 153.22L244.67 154.14L246.15 155.53L251.6 154.96L252.38 153.85L252.19 151.14L251.27 145.9L251.6 145.31L251.71 140.41Q251.53 140.44 251.43 140.37Q251.35 140.3 251.33 140.17Q251.27 139.86 251.32 139.6Q251.26 139.36 251.28 139.13Q251.36 138.38 252.41 137.73Q253.77 136.88 256.03 136.14L257.58 134.4L258.8 134.19ZM280.22 141.87Q280.01 144.53 279.38 145.14L276.14 147.75Q276 147.7 275.86 147.69Q275.73 147.68 275.6 147.71L275.08 147.8Q274.89 147.83 274.1 147.51Q273.32 147.18 272.57 146.83Q272.03 146.56 271.76 146.13Q271.74 146.09 271.71 146.05Q271.52 145.67 271.45 145.26Q271.43 145.15 271.42 145.03Q271.38 144.5 271.45 144.07Q271.52 143.64 271.64 143.48Q272.14 142.71 271.98 142.12Q271.97 142.08 271.96 142.04Q271.75 141.41 271.63 141.24Q271.37 140.06 271.54 139.31L271.79 138.24Q271.95 137.82 272.22 137.12Q272.49 136.4 272.81 135.43Q272.83 135.32 273.16 134.9Q273.51 134.47 273.96 133.76Q274.1 133.48 274.32 133.28Q274.55 133.06 274.86 132.93Q275.48 132.66 275.86 132.6L276.28 132.52Q276.29 132.52 276.31 132.52Q276.39 132.49 276.46 132.39Q276.46 132.39 276.46 132.39Q276.55 132.29 277.07 132.57Q277.53 132.93 277.62 133.33Q277.67 133.51 277.78 133.64Q277.91 133.78 278.13 133.85Q278.32 134.35 278.59 134.85Q278.88 135.34 279.38 136.02Q280.35 137.31 280.53 138.35Q280.64 138.96 280.5 139.7Q280.36 140.43 280.22 141.87Z" fill="#FFFFFF" fill-opacity="1.000000" fill-rule="evenodd"/>
	</g>
</svg>
