<svg width="110.037476" height="29.201660" viewBox="0 0 110.037 29.2017" fill="none" xmlns="http://www.w3.org/2000/svg" xmlns:xlink="http://www.w3.org/1999/xlink">
	<rect id="Frame" width="110.037476" height="29.201660" fill="#FFFFFF" fill-opacity="0"/>
	<path id="Merge" d="M27.3358 10.1377C27.6171 10.1377 27.8381 10.3588 27.8381 10.64L27.8381 14.4915L30.9081 14.4915C31.1894 14.4915 31.4104 14.7124 31.4104 14.9938C31.4104 15.275 31.1894 15.4961 30.9081 15.4961L27.8381 15.4961L27.8381 15.5519C27.8381 15.8333 27.6171 16.0543 27.3358 16.0543C27.0544 16.0543 26.8334 15.8333 26.8334 15.5519L26.8334 15.4961L26.666 15.4961C26.3846 15.4961 26.1636 15.275 26.1636 14.9938C26.1636 14.7124 26.3846 14.4915 26.666 14.4915L26.8334 14.4915L26.8334 10.64C26.8334 10.3588 27.0544 10.1377 27.3358 10.1377Z" clip-rule="evenodd" fill="#0183FF" fill-opacity="1.000000" fill-rule="evenodd"/>
	<path id="Remove the top layer" d="M27.5834 23.9115C27.4274 23.92 27.2704 23.9244 27.1125 23.9244C22.3079 23.9244 18.4051 19.8965 18.4051 14.938C18.4051 9.97937 22.3079 5.95142 27.1125 5.95142C27.3497 5.95142 27.5846 5.96118 27.817 5.98047L35.1577 6.28638C35.8324 6.29041 36.3781 6.83862 36.3781 7.51428L36.3781 22.4731C36.3781 23.1498 35.8311 23.6985 35.1552 23.7012L27.5834 23.9115ZM27.3358 8.74231C23.9448 8.74231 21.1959 11.5411 21.1959 14.9938C21.1959 18.4463 23.9448 21.2452 27.3358 21.2452C30.7267 21.2452 33.4756 18.4463 33.4756 14.9938C33.4756 11.5411 30.7267 8.74231 27.3358 8.74231Z" clip-rule="evenodd" fill="#51D62A" fill-opacity="1.000000" fill-rule="evenodd"/>
	<path id="Merge" d="M77.3362 4.59229C78.6838 4.59229 79.7971 3.55957 79.7971 2.29248C79.7971 1.03271 78.6838 0 77.3362 0C75.9885 0 74.8826 1.03271 74.8826 2.29248C74.8826 3.55957 75.9885 4.59229 77.3362 4.59229ZM92.0153 6.70166L88.7633 6.70166L88.7633 5.60303C88.7633 4.49707 89.2101 3.84521 90.5431 3.84521C91.0851 3.84521 91.6417 3.9624 92.0006 4.07959L92.799 0.673828C92.235 0.498047 90.9899 0.219727 89.5983 0.219727C86.5148 0.219727 84.2223 1.96289 84.2223 5.51514L84.2223 6.70166L81.9152 6.70166L81.9152 10.1074L84.2223 10.1074L84.2223 23.064L88.7633 23.064L88.7633 10.1074L92.0153 10.1074L92.0153 6.70166ZM57.6008 23.064L62.1418 23.064L62.1418 17.8638L63.3649 16.4722L67.8327 23.064L73.1428 23.064L66.7634 13.7842L72.8351 6.70166L67.6276 6.70166L62.3835 12.9126L62.1418 12.9126L62.1418 1.24512L57.6008 1.24512L57.6008 23.064ZM6.67969 6.04639L0 6.04639L0 2.24512L17.9224 2.24512L17.9224 6.04639L11.2427 6.04639L11.2427 24.064L6.67969 24.064L6.67969 6.04639ZM54.3628 11.3672C53.96 8.34961 51.5283 6.48926 47.3975 6.48926C43.208 6.48926 40.4541 8.42285 40.4614 11.5796C40.4541 14.0332 41.9922 15.6152 45.1929 16.2598L48.0273 16.8237C49.4556 17.1094 50.1001 17.6294 50.1221 18.4497C50.1001 19.4238 49.0454 20.1123 47.4634 20.1123C45.8447 20.1123 44.7681 19.4238 44.4897 18.0908L40.022 18.3252C40.4541 21.4526 43.1128 23.3862 47.4487 23.3862C51.6895 23.3862 54.729 21.2183 54.7363 17.9956C54.729 15.6299 53.1836 14.209 50.0049 13.5645L47.0459 12.9639C45.5225 12.6343 44.9585 12.1143 44.9658 11.3232C44.9585 10.3418 46.0645 9.70459 47.4707 9.70459C49.0454 9.70459 49.9829 10.5688 50.21 11.6235L54.3628 11.3672ZM75.051 23.064L79.592 23.064L79.592 6.70166L75.051 6.70166L75.051 23.064ZM97.5863 29.2017C100.963 29.2017 102.75 27.4731 103.68 24.8291L110.037 6.70166L105.233 6.70166L101.812 18.7207L101.644 18.7207L98.2528 6.70166L93.4847 6.70166L99.3514 23.5327L99.0878 24.2285C98.4872 25.7593 97.3519 25.8325 95.7552 25.3418L94.7299 28.7329C95.3817 29.0112 96.4364 29.2017 97.5863 29.2017Z" clip-rule="evenodd" fill="#0183FF" fill-opacity="1.000000" fill-rule="evenodd"/>
</svg>
