<svg width="17.973022" height="17.973022" viewBox="0 0 17.973 17.973" fill="none" xmlns="http://www.w3.org/2000/svg" xmlns:xlink="http://www.w3.org/1999/xlink">
	<rect id="Frame" width="17.973022" height="17.973022" fill="#FFFFFF" fill-opacity="0"/>
	<path id="Merge" d="M8.93073 4.18628C9.21204 4.18628 9.43304 4.40735 9.43304 4.6886L9.43304 8.54004L12.503 8.54004C12.7843 8.54004 13.0053 8.76099 13.0053 9.04236C13.0053 9.32361 12.7843 9.54468 12.503 9.54468L9.43304 9.54468L9.43304 9.60046C9.43304 9.88184 9.21204 10.1029 8.93073 10.1029C8.64935 10.1029 8.42834 9.88184 8.42834 9.60046L8.42834 9.54468L8.26093 9.54468C7.97955 9.54468 7.75854 9.32361 7.75854 9.04236C7.75854 8.76099 7.97955 8.54004 8.26093 8.54004L8.42834 8.54004L8.42834 4.6886C8.42834 4.40735 8.64935 4.18628 8.93073 4.18628Z" clip-rule="evenodd" fill="#0183FF" fill-opacity="1.000000" fill-rule="evenodd"/>
	<path id="Remove the top layer" d="M9.17828 17.9601C9.02234 17.9686 8.86536 17.973 8.70746 17.973C3.90283 17.973 0 13.9451 0 8.98657C0 4.02795 3.90283 0 8.70746 0C8.94458 0 9.1795 0.00976562 9.41187 0.0290527L16.7526 0.334961C17.4273 0.338989 17.973 0.887207 17.973 1.56287L17.973 16.5217C17.973 17.1984 17.426 17.7471 16.7501 17.7498L9.17828 17.9601ZM8.93073 2.79089C5.53973 2.79089 2.79083 5.58972 2.79083 9.04236C2.79083 12.4949 5.53973 15.2938 8.93073 15.2938C12.3217 15.2938 15.0706 12.4949 15.0706 9.04236C15.0706 5.58972 12.3217 2.79089 8.93073 2.79089Z" clip-rule="evenodd" fill="#51D62A" fill-opacity="1.000000" fill-rule="evenodd"/>
</svg>
